<svg xmlns="http://www.w3.org/2000/svg" xmlns:xlink="http://www.w3.org/1999/xlink" width="1024" zoomAndPan="magnify" viewBox="0 0 768 767.999994" height="1024" preserveAspectRatio="xMidYMid meet" version="1.2"><defs><clipPath id="6db0362b19"><path d="M 76.800781 13.933594 L 724.824219 13.933594 L 724.824219 768 L 76.800781 768 Z M 76.800781 13.933594 "/></clipPath><clipPath id="137af7fbcf"><path d="M 400.8125 13.933594 L 724.824219 202.449219 L 724.824219 579.484375 L 400.8125 768 L 76.800781 579.484375 L 76.800781 202.449219 Z M 400.8125 13.933594 "/></clipPath><clipPath id="3196c4fd9c"><path d="M 76.800781 13.933594 L 724.550781 13.933594 L 724.550781 767.683594 L 76.800781 767.683594 Z M 76.800781 13.933594 "/></clipPath><clipPath id="925fd7c5ef"><path d="M 400.675781 13.933594 L 724.550781 202.371094 L 724.550781 579.246094 L 400.675781 767.683594 L 76.800781 579.246094 L 76.800781 202.371094 Z M 400.675781 13.933594 "/></clipPath><clipPath id="97c9f84e2e"><path d="M 334.804688 413.371094 L 466.820312 413.371094 L 466.820312 545.382812 L 334.804688 545.382812 Z M 334.804688 413.371094 "/></clipPath><clipPath id="81fe2504c8"><path d="M 400.8125 413.371094 C 364.359375 413.371094 334.804688 442.921875 334.804688 479.375 C 334.804688 515.832031 364.359375 545.382812 400.8125 545.382812 C 437.265625 545.382812 466.820312 515.832031 466.820312 479.375 C 466.820312 442.921875 437.265625 413.371094 400.8125 413.371094 Z M 400.8125 413.371094 "/></clipPath></defs><g id="19a5073cc2"><rect x="0" width="768" y="0" height="767.999994" style="fill:#ffffff;fill-opacity:1;stroke:none;"/><rect x="0" width="768" y="0" height="767.999994" style="fill:#141d3e;fill-opacity:1;stroke:none;"/><g clip-rule="nonzero" clip-path="url(#6db0362b19)"><g clip-rule="nonzero" clip-path="url(#137af7fbcf)"><path style=" stroke:none;fill-rule:nonzero;fill:#141d3e;fill-opacity:1;" d="M 76.800781 13.933594 L 724.824219 13.933594 L 724.824219 768.277344 L 76.800781 768.277344 Z M 76.800781 13.933594 "/></g></g><g clip-rule="nonzero" clip-path="url(#3196c4fd9c)"><g clip-rule="nonzero" clip-path="url(#925fd7c5ef)"><path style="fill:none;stroke-width:100;stroke-linecap:butt;stroke-linejoin:miter;stroke:#ffffff;stroke-opacity:1;stroke-miterlimit:4;" d="M 432.015678 -0.0013189 L 864.030313 251.354166 L 864.030313 754.065137 L 432.015678 1005.420622 L 0.00104317 754.065137 L 0.00104317 251.354166 Z M 432.015678 -0.0013189 " transform="matrix(0.749685,0,0,0.749685,76.799999,13.934583)"/></g></g><g clip-rule="nonzero" clip-path="url(#97c9f84e2e)"><g clip-rule="nonzero" clip-path="url(#81fe2504c8)"><path style=" stroke:none;fill-rule:nonzero;fill:#ffffff;fill-opacity:1;" d="M 334.804688 413.371094 L 466.820312 413.371094 L 466.820312 545.382812 L 334.804688 545.382812 Z M 334.804688 413.371094 "/></g></g></g></svg>